<?xml version="1.0" encoding="utf-8"?>
<!-- Generator: Adobe Illustrator 23.0.1, SVG Export Plug-In . SVG Version: 6.00 Build 0)  -->
<svg version="1.0" id="Layer_1" xmlns="http://www.w3.org/2000/svg" xmlns:xlink="http://www.w3.org/1999/xlink" x="0px" y="0px"
	 viewBox="0 0 1000 1000" style="enable-background:new 0 0 1000 1000;" xml:space="preserve">
<g>
	<g>
		<g>
			<path d="M700.01,405.53c6.2-9.7,8.41-19.66,9.05-27.44c7.34-0.14,16.7-1.75,25.89-7.36c24.33-14.87,25.29-44.2,25.31-47.49
				c0.01-1.24-0.48-2.43-1.35-3.31c-0.87-0.88-2.06-1.37-3.3-1.37l-230.23,0.02c-4.29-0.42-15.35-0.63-25.25,6.75
				c-2.62,1.95-4.97,4.31-6.96,6.96c-7.97-8.08-16.83-15.76-26.56-22.97c-14.02-10.4-23.65-12.34-31.96-12.89
				c-18.29-1.19-33.04,7.57-41.72,14.51c-5.95-5.36-15.99-12.11-29.98-13.77c-19.35-2.26-33.93,6.64-40.83,12.08
				c-21.24-16.95-50.78-15.53-77.34,4.41c-1.08,0.81-1.75,2.04-1.85,3.39c-0.1,1.34,0.4,2.66,1.35,3.61l56.05,56.05
				c8.49,8.49,16.91,17.05,25.34,25.6c18.93,19.23,38.5,39.1,58.55,57.88c19.47,18.24,39.63,27.33,60.95,27.33
				c14.2,0,28.9-4.04,44.24-12.09c1.16-0.61,2.29-1.25,3.41-1.93c1.78,2.6,3.89,4.95,6.31,7.02c3.47,2.97,7.42,5.22,11.74,6.71
				c0.47,0.16,0.96,0.25,1.46,0.25c7.79,0.09,15.63,0.13,23.46,0.13c7.84,0,15.67-0.04,23.44-0.13c40.9-0.45,49.07-1.76,57.74-6.36
				c10.82-5.73,25.2-18.6,33.32-47.38C659.93,432.78,685.58,428.08,700.01,405.53z M485.09,467.22
				c-34.89,18.32-64.92,13.94-94.52-13.79c-19.9-18.65-39.41-38.46-58.28-57.62c-8.44-8.57-16.88-17.15-25.39-25.65L254.75,318
				c22.73-14.92,47.07-14.73,63.95,0.55c0,0,0,0,0,0c0,0,0,0,0,0c0.84,0.76,1.66,1.54,2.46,2.37
				c20.31,21.11,40.61,42.22,60.92,63.33c2.27-2.09,4.54-4.17,6.81-6.26c-19.96-20.77-39.92-41.54-59.88-62.31
				c5.94-4.37,17.78-11.07,32.84-9.29c13.96,1.65,23.21,9.48,27.48,13.99c20.86,22.14,41.72,44.28,62.58,66.42
				c2.33-2.03,4.65-4.05,6.98-6.08c-19.81-21.04-39.61-42.07-59.42-63.11c7.56-5.87,19.85-12.91,34.56-11.9
				c4.97,0.33,13.29,0.88,27.05,11.08c20.86,15.47,37.56,33.07,49.64,52.32c9.56,15.25,12.13,36.01,6.86,55.54
				C512.47,443.53,500.63,459.05,485.09,467.22z M612.63,472.93c-6.56,3.48-12.87,4.83-53.49,5.28
				c-15.23,0.17-30.67,0.17-45.93,0.01c-2.95-1.1-5.65-2.7-8.05-4.75c-1.83-1.56-3.39-3.36-4.73-5.33
				c12.34-9.97,21.6-24.37,26.11-41.08c5.93-21.98,2.95-45.5-7.96-62.89c-5.43-8.66-11.76-17-18.91-24.97
				c1.64-2.49,3.69-4.68,6.02-6.41c7.3-5.44,15.55-5.28,19.24-4.93H750.6c-1.04,8.3-5.06,25.53-20.5,34.96
				c-9.19,5.62-18.71,6.32-25.4,5.91c-0.01,0-0.02,0-0.03,0c-0.01,0-0.02,0-0.04,0c-32.48,0-64.95,0-97.43,0c0,3.1,0,6.19,0,9.29
				c30.85,0,61.69-0.01,92.54-0.01c-0.6,6.5-2.52,14.65-7.56,22.54c-14.42,22.54-42.5,24.09-45.51,24.19
				c-31.82,0.04-63.65,0.08-95.47,0.13c0,3.05,0,6.11,0,9.16c29.78,0,59.56,0,89.34,0C633.22,457.67,621.5,468.23,612.63,472.93z"/>
			<path d="M952.31,647.05c-3.5,1.29-9.06,2.78-11.93,0.13c-2.09-1.92-1.86-5.24-1.85-6.32c0.31-34.6,0.61-69.19,0.92-103.79
				c-6.32,0-12.63,0-18.95,0c0.72,60.26,0.95,100.31,0.37,107.1c-0.04,0.47-0.16,3.08,0.3,6.47c0.68,4.99,2.35,8.72,5.23,11.11
				c3.27,2.71,7.05,2.95,10.12,3.12c7.85,0.42,14.03-2.82,17.17-4.83C953.24,655.71,952.78,651.38,952.31,647.05z"/>
			<path d="M134.98,544.08c-10.84,22.66-21.69,45.33-32.53,67.99c-10.35-22.66-20.71-45.33-31.06-67.99c-8.36,0-16.73,0-25.09,0
				c0.05,20.74,0.07,41.48,0.07,62.23c0,19.37-0.02,38.73-0.07,58.1c6.96,0,13.92,0,20.89,0c0.03-29.36,0.06-58.72,0.08-88.07
				c8.54,19.78,17.09,39.57,25.63,59.35c6.6,0,13.2,0,19.79,0c8.32-19.09,16.63-38.18,24.95-57.27
				c-0.11,28.66-0.22,57.33-0.32,85.99c6.91,0,13.82,0,20.73,0c-0.03-40.09-0.06-80.19-0.08-120.28
				C150.3,544.11,142.64,544.09,134.98,544.08z"/>
			<path d="M813.67,576.69c-5.45,0.27-10.91,0.55-16.37,0.82c-5.29-2.43-10.04-3.83-13.79-4.68c-4.9-1.1-18.8-4.04-33.91,1.44
				c-4.36,1.58-8.04,2.96-11.44,6.56c-5.06,5.34-6.17,11.76-6.61,16.58c-1.09,12.2,0.88,23.29,10.74,31.67
				c-2.48,8.2-7.04,15.83-0.31,25c-2.35,1.69-4.89,2.85-6.51,4.79c-13.81,16.44-7.09,37.24,13.65,42.24
				c14.54,3.5,29.17,3.42,43.7-0.16c9.52-2.34,16.29-7.85,18.9-17.63c4.6-17.2-3.97-31.24-21.51-34.88
				c-5.48-1.14-11.11-1.57-16.68-2.22c-3.86-0.45-7.8-0.42-11.61-1.13c-5.85-1.09-8.01-4.52-4.79-11.85
				c7.22,0,14.16,0.56,20.99-0.11c15.07-1.48,22.74-8.43,25.12-23.35c1.3-8.17-0.04-15.12-0.68-17.87
				c-0.36-1.56-0.75-2.85-1.04-3.76c4.36-0.04,8.73-0.08,13.09-0.12C814.29,584.25,813.98,580.47,813.67,576.69z M782.48,664.27
				c7.82,1.22,11.21,5.19,11.06,11.52c-0.13,5.43-3.71,9.86-10.91,10.77c-7.6,0.96-15.51,1.18-23.09,0.21
				c-10.42-1.34-13.12-5.63-11.58-16.07c0.48-3.24,2.07-6.31,3.4-10.17C762.93,661.89,772.76,662.75,782.48,664.27z M784.32,605.26
				c-0.45,9.54-2.89,11.91-12.64,12.62c-1.29,0.09-2.59,0.01-7,0.01c0,0,0,0,0,0c0,0-5.09-0.29-8.53-2.28
				c-3.04-1.75-4.44-4.6-5.06-5.88c-3.3-6.72-0.24-13.3-0.1-14.07c0.47-2.5,3-5.52,5.37-6.58c7.37-3.3,15.24-3.44,22.52,0.25
				c2.27,1.15,4.06,4.3,4.91,6.92C784.71,599.02,784.46,602.25,784.32,605.26z"/>
			<path d="M616.86,563.57c0-5.78-0.01-11.55-0.01-17.33c-25.11,0-50.22,0-75.33,0c0,39.25,0,78.5,0,117.75
				c25.02-0.02,50.04-0.03,75.07-0.05c0.09-6.1,0.18-12.19,0.27-18.29c-18.22,0-36.44,0-54.67,0c-0.02-11.04-0.05-22.08-0.07-33.12
				c16.65-0.11,33.3-0.22,49.94-0.34c0-5.99,0-11.99,0-17.98c-17.22,0-33.48,0-50.08,0c0-10.22,0-20.44,0-30.66
				C580.27,563.57,598.56,563.57,616.86,563.57z"/>
			<path d="M286.34,578.66c-8.2-6.81-18.05-6.81-23.2-6.8c-4.27,0.01-18.14,0.04-28.1,9.86c-9.52,9.39-9.66,22.01-9.82,36.47
				c-0.12,10.78-0.26,23.89,8.88,35.3c0.99,1.23,5.83,7.12,14.29,11.2c20.23,9.76,41.64-0.25,45.23-2
				c-0.49-4.86-0.9-8.96-1.35-13.38c-5.61,0.81-10.32,1.3-13.75,1.6c-12.35,1.09-15.77,0.47-18.24-0.23
				c-3.18-0.91-7.11-2.03-10.07-5.52c-5.45-6.45-3.06-15.64-2.69-16.97c16.43,0,33.06,0,50.2,0c0-9.78,1.12-18.43-0.22-26.68
				C295.82,591.1,292.22,583.54,286.34,578.66z M279.86,612.35c-11.82,0-23.65,0-35.47,0c0.03-3.74,0.05-7.48,0.08-11.22
				c0.34-1.78,1.43-6.21,5.3-9.7c6.71-6.06,15.78-3.85,17.18-3.51c1.6,0.39,8.72,2.12,11.81,8.18c1.63,3.19,1.69,6.69,1.73,9.46
				C280.54,608.38,280.2,610.72,279.86,612.35z"/>
			<path d="M446.25,578.66c-8.2-6.81-18.05-6.81-23.2-6.8c-4.27,0.01-18.14,0.04-28.1,9.86c-9.52,9.39-9.66,22.01-9.82,36.47
				c-0.12,10.78-0.26,23.89,8.88,35.3c0.99,1.23,5.83,7.12,14.29,11.2c20.23,9.76,41.64-0.25,45.23-2
				c-0.49-4.86-0.9-8.96-1.35-13.38c-5.61,0.81-10.32,1.3-13.75,1.6c-12.35,1.09-15.77,0.47-18.24-0.23
				c-3.18-0.91-7.11-2.03-10.07-5.52c-5.45-6.45-3.06-15.64-2.69-16.97c16.43,0,33.06,0,50.2,0c0-9.78,1.12-18.43-0.22-26.68
				C455.74,591.1,452.13,583.54,446.25,578.66z M439.77,612.35c-11.82,0-23.65,0-35.47,0c0.03-3.74,0.05-7.48,0.08-11.22
				c0.34-1.78,1.43-6.21,5.3-9.7c6.71-6.06,15.78-3.85,17.18-3.51c1.6,0.39,8.72,2.12,11.81,8.18c1.63,3.19,1.69,6.69,1.73,9.46
				C440.45,608.38,440.11,610.72,439.77,612.35z"/>
			<path d="M887.64,578.66c-8.2-6.81-18.05-6.81-23.2-6.8c-4.27,0.01-18.14,0.04-28.1,9.86c-9.52,9.39-9.66,22.01-9.82,36.47
				c-0.12,10.78-0.26,23.89,8.88,35.3c0.99,1.23,5.83,7.12,14.29,11.2c20.23,9.76,41.64-0.25,45.23-2
				c-0.49-4.86-0.9-8.96-1.35-13.38c-5.61,0.81-10.32,1.3-13.75,1.6c-12.35,1.09-15.77,0.47-18.24-0.23
				c-3.18-0.91-7.11-2.03-10.07-5.52c-5.45-6.45-3.06-15.64-2.69-16.97c16.43,0,33.06,0,50.2,0c0-9.78,1.12-18.43-0.22-26.68
				C897.13,591.1,893.52,583.54,887.64,578.66z M881.17,612.35c-11.82,0-23.65,0-35.47,0c0.03-3.74,0.05-7.48,0.08-11.22
				c0.34-1.78,1.43-6.21,5.3-9.7c6.71-6.06,15.78-3.85,17.18-3.51c1.6,0.39,8.72,2.12,11.81,8.18c1.63,3.19,1.69,6.69,1.73,9.46
				C881.85,608.38,881.5,610.72,881.17,612.35z"/>
			<path d="M704.3,578.89c-5.41-5.24-13.62-7.56-24.09-6.45c-8.29,0.87-16.3,4.54-24.71,7.02c0.04-1.73,0.08-3.46,0.12-5.18
				c-5.65,0-11.3,0-16.95,0c-0.19,30.04-0.39,60.08-0.58,90.12c6.45-0.16,12.91-0.32,19.36-0.48c0-5.09,0-9.31,0-13.54
				c0-14.68-0.06-29.36,0.02-44.05c0.03-5.32,0.08-8.03,1.71-10.33c4.98-7.05,20.57-9.21,28.71-1.08
				c5.58,5.57,5.27,13.57,5.14,15.55c0.02,8.88,0.05,17.77,0.07,26.65c0.02,9.01,0.05,18.02,0.07,27.02
				c6.19,0.08,12.38,0.17,18.57,0.25c0.98-17.48,1.61-41.21-0.07-65.27C711.25,593.29,710.47,584.87,704.3,578.89z"/>
			<path d="M370.35,591.02c-0.01-5.78-0.02-11.56-0.03-17.34c-8.12,0-16.23,0-24.35,0c-0.01-7.71-0.02-15.42-0.04-23.13
				c-7.49,0-14.97,0-22.46,0c0,7.71,0,15.42,0,23.13c-4.85,0-9.71,0-14.56,0c0,5.8,0,11.61,0,17.41c5.06,0,10.12,0,15.18,0
				c0.04,2.77,0.06,7.03-0.02,12.22c-0.32,19.52-0.25,27.02,0.13,40.15c0.23,7.89,2.81,13.99,7.48,17.56
				c1.66,1.26,4.12,2.63,9.45,3.45c5.02,0.77,15.21,1.45,28.59-3.97c-0.75-5.07-1.49-10.15-2.24-15.22
				c-5.12,2.86-9.54,3.57-12.15,3.76c-2.73,0.2-5.58,0.38-7.66-1.4c-2.05-1.75-2.36-4.53-2.48-5.98c-0.51-6.37-0.3-25.23,0.73-50.61
				C354.07,591.04,362.21,591.03,370.35,591.02z"/>
			<path d="M496.22,580.78c-0.65-2.37-1.3-4.74-1.95-7.1c-5.6,0-11.19,0-16.79,0c0,29.9,0,59.81,0,89.71c6.88,0,13.76,0,20.64,0
				c0-22.39,0-44.77,0-67.16c3.63-1.26,7.8-2.48,12.44-3.47c3.96-0.84,7.65-1.37,11.01-1.71c0.02-6.14,0.05-12.29,0.07-18.43
				c-3.25,0.02-7.91,0.4-13.2,2.08C503.01,576.43,498.91,578.88,496.22,580.78z"/>
			<path d="M183.92,557.87c6.86,0.15,13.72,0.3,20.57,0.45c0-7.16,0-14.33,0-21.49c-6.86,0.08-13.72,0.16-20.57,0.23
				C183.92,544,183.92,550.94,183.92,557.87z"/>
		</g>
	</g>
	<rect x="183.92" y="574.28" width="20.84" height="89.84"/>
</g>
</svg>
